<svg xmlns="http://www.w3.org/2000/svg" viewBox="0 0 64 64"><path fill="#2a2f63" d="M44.99 0H19.01c-2.3 0-4.17 1.86-4.17 4.16v55.67c0 2.3 1.87 4.17 4.17 4.17h25.98c2.3 0 4.17-1.87 4.17-4.17V4.16c0-2.3-1.87-4.16-4.17-4.16zm1.31 59.83c0 .72-.59 1.3-1.31 1.3H19.01c-.72 0-1.3-.58-1.3-1.3V57.1H46.3v2.73zm0-5.6H17.71V9.82H46.3v44.41zm0-47.28H17.71V4.16c0-.71.58-1.3 1.3-1.3h25.98c.72 0 1.31.59 1.31 1.3v2.79z"/><path fill="#d6e9f2" d="M17.71 9.82v44.41H46.3V9.82H17.71zM32 14.26c2.86 0 5.19 2.31 5.19 5.13 0 2.83-2.33 5.13-5.19 5.13s-5.18-2.3-5.18-5.13c0-2.82 2.32-5.13 5.18-5.13zm7.38 35.47H24.62c-.79 0-1.44-.64-1.44-1.44 0-.79.65-1.43 1.44-1.43h14.76c.79 0 1.44.64 1.44 1.43 0 .8-.65 1.44-1.44 1.44zm0-4.84H24.62c-.79 0-1.44-.64-1.44-1.43s.65-1.43 1.44-1.43h14.76c.79 0 1.44.64 1.44 1.43s-.65 1.43-1.44 1.43zm1.9-8.68c0 1.07-.87 1.93-1.94 1.93H24.66c-1.07 0-1.94-.86-1.94-1.93v-2.07c0-5.11 4.17-9.28 9.28-9.28s9.28 4.17 9.28 9.28v2.07z"/><path fill="#ffdb7c" d="M17.71 57.1v2.73c0 .72.58 1.3 1.3 1.3h25.98c.72 0 1.31-.58 1.31-1.3V57.1H17.71zm15.32 3.67h-2.06c-.79 0-1.44-.64-1.44-1.43s.65-1.43 1.44-1.43h2.06c.79 0 1.44.64 1.44 1.43s-.65 1.43-1.44 1.43zM44.99 2.86H19.01c-.72 0-1.3.59-1.3 1.3v2.79H46.3V4.16c0-.71-.59-1.3-1.31-1.3zm-10.8 3.23h-4.38c-.79 0-1.43-.65-1.43-1.44s.64-1.43 1.43-1.43h4.38c.79 0 1.43.64 1.43 1.43s-.64 1.44-1.43 1.44z"/><path fill="#2a2f63" d="M35.62 4.65c0 .79-.64 1.44-1.43 1.44h-4.38c-.79 0-1.43-.65-1.43-1.44s.64-1.43 1.43-1.43h4.38c.79 0 1.43.64 1.43 1.43zm-1.15 54.69c0 .79-.65 1.43-1.44 1.43h-2.06c-.79 0-1.44-.64-1.44-1.43s.65-1.43 1.44-1.43h2.06c.79 0 1.44.64 1.44 1.43zM32 24.86c-5.11 0-9.28 4.17-9.28 9.28v2.07c0 1.07.87 1.93 1.94 1.93h14.68c1.07 0 1.94-.86 1.94-1.93v-2.07c0-5.11-4.17-9.28-9.28-9.28zm6.41 10.42h-.51v-1.96a1.43 1.43 0 10-2.86 0v1.96h-6.08v-1.96a1.43 1.43 0 10-2.86 0v1.96h-.51v-1.14c0-3.53 2.88-6.41 6.41-6.41s6.41 2.88 6.41 6.41v1.14z"/><path fill="#f16e61" d="M38.41 34.14v1.14h-.51v-1.96a1.43 1.43 0 10-2.86 0v1.96h-6.08v-1.96a1.43 1.43 0 10-2.86 0v1.96h-.51v-1.14c0-3.53 2.88-6.41 6.41-6.41s6.41 2.88 6.41 6.41z"/><path fill="#2a2f63" d="M32 14.26c-2.86 0-5.18 2.31-5.18 5.13 0 2.83 2.32 5.13 5.18 5.13s5.19-2.3 5.19-5.13c0-2.82-2.33-5.13-5.19-5.13zm0 7.4c-1.28 0-2.32-1.02-2.32-2.27 0-1.24 1.04-2.26 2.32-2.26 1.28 0 2.32 1.02 2.32 2.26 0 1.25-1.04 2.27-2.32 2.27z"/><path fill="#ffe4aa" d="M34.32 19.39c0 1.25-1.04 2.27-2.32 2.27-1.28 0-2.32-1.02-2.32-2.27 0-1.24 1.04-2.26 2.32-2.26 1.28 0 2.32 1.02 2.32 2.26z"/><path fill="#2a2f63" d="M40.82 43.46c0 .79-.65 1.43-1.44 1.43H24.62c-.79 0-1.44-.64-1.44-1.43s.65-1.43 1.44-1.43h14.76c.79 0 1.44.64 1.44 1.43zm0 4.83c0 .8-.65 1.44-1.44 1.44H24.62c-.79 0-1.44-.64-1.44-1.44 0-.79.65-1.43 1.44-1.43h14.76c.79 0 1.44.64 1.44 1.43z"/></svg>