<svg xmlns="http://www.w3.org/2000/svg" width="64" height="64" enable-background="new 0 0 64 64" viewBox="0 0 64 64"><polygon fill="#E6E9ED" points="56 59.5 11 59.5 8 63.5 54 63.5"/><rect width="42" height="59" x="14" y=".5" fill="#AC92EC"/><rect width="3" height="59" x="11" y=".5" fill="#656D78"/><polygon fill="#545C66" points="11 59.5 8 63.5 8 4.5 11 .5"/><polygon fill="#545C66" points="23 16.465 23 14.42 32.38 12.436 30.84 14.805"/><polygon fill="#545C66" points="38.26 11.195 36.71 13.564 33.78 14.186 35.32 11.814"/><polygon fill="#AAB2BD" points="35.32 11.814 33.78 14.186 30.84 14.805 32.38 12.436"/><polygon fill="#AAB2BD" points="41.19 10.574 39.65 12.945 36.71 13.564 38.26 11.195"/><polygon fill="#545C66" points="44.12 9.955 42.58 12.324 39.65 12.945 41.19 10.574"/><polygon fill="#545C66" points="45 17.465 47 17.465 47 19.465 43 19.465"/><polygon fill="#AAB2BD" points="46.08 9.535 46.5 11.494 42.58 12.324 44.12 9.955"/><polygon fill="#AAB2BD" points="42 17.465 45 17.465 43 19.465 40 19.465"/><polygon fill="#545C66" points="39 17.465 42 17.465 40 19.465 37 19.465"/><polygon fill="#AAB2BD" points="36 17.465 39 17.465 37 19.465 34 19.465"/><polygon fill="#545C66" points="33 17.465 36 17.465 34 19.465 31 19.465"/><polygon fill="#AAB2BD" points="30 17.465 33 17.465 31 19.465 28 19.465"/><polygon fill="#545C66" points="26 17.465 30 17.465 28 19.465 23 19.465 23 16.465 26 16.465"/><path fill="#656D78" d="M23,32.465v-13h5h3h3h3h3h3h4v13c0,0.55-0.45,1-1,1H24C23.45,33.465,23,33.015,23,32.465z"/><polygon fill="#967ADC" points="8.75 62.5 8 63.5 54 63.5 54.5 62.5"/><polygon fill="#434A54" points="8.75 62.5 8 63.5 10.958 63.5 11.458 62.5"/><path fill="#545C66" d="M41.998 25.5H28.002c-.276 0-.5-.224-.5-.5s.224-.5.5-.5h13.996c.276 0 .5.224.5.5S42.274 25.5 41.998 25.5zM41.998 28.499H28.002c-.276 0-.5-.224-.5-.5s.224-.5.5-.5h13.996c.276 0 .5.224.5.5S42.274 28.499 41.998 28.499z"/><path fill="#967ADC" d="M46.499 41H23.5c-.276 0-.5-.224-.5-.5s.224-.5.5-.5h22.999c.276 0 .5.224.5.5S46.775 41 46.499 41zM46.499 44H23.5c-.276 0-.5-.224-.5-.5s.224-.5.5-.5h22.999c.276 0 .5.224.5.5S46.775 44 46.499 44zM41.499 47H28.5c-.276 0-.5-.224-.5-.5s.224-.5.5-.5h12.999c.276 0 .5.224.5.5S41.775 47 41.499 47zM22 56h-4c-.276 0-.5-.224-.5-.5S17.724 55 18 55h4c.276 0 .5.224.5.5S22.276 56 22 56zM52 56h-4c-.276 0-.5-.224-.5-.5S47.724 55 48 55h4c.276 0 .5.224.5.5S52.276 56 52 56z"/></svg>