<svg xmlns="http://www.w3.org/2000/svg" data-name="Layer 1" viewBox="0 0 64 64"><path fill="#cfd8dc" d="M43 35h10v10H43zM11 35h10v10H11zM27 35h10v10H27zM10 16a1 1 0 10-1 1 1 1 0 001-1zm3 0a1 1 0 10-1 1 1 1 0 001-1zm46 3H5v-6h54zm-43-3a1 1 0 10-1 1 1 1 0 001-1z"/><path fill="#fff" d="M5 19v32h54V19zm6 6h42v6H11zm42 10v10H43V35zm-16 0v10H27V35zm-26 0h10v10H11z"/><path fill="#b3e5fc" d="M11 25h42v6H11z"/><circle cx="15" cy="16" r="1" fill="#ef5350"/><circle cx="12" cy="16" r="1" fill="#fff176"/><circle cx="9" cy="16" r="1" fill="#aed581"/><path fill="#01579b" d="M59 20H5a1 1 0 010-2h54a1 1 0 010 2zm-6 12H11a1 1 0 01-1-1v-6a1 1 0 011-1h42a1 1 0 011 1v6a1 1 0 01-1 1zm-41-2h40v-4H12zm9 16H11a1 1 0 01-1-1V35a1 1 0 011-1h10a1 1 0 011 1v10a1 1 0 01-1 1zm-9-2h8v-8h-8zm25 2H27a1 1 0 01-1-1V35a1 1 0 011-1h10a1 1 0 011 1v10a1 1 0 01-1 1zm-9-2h8v-8h-8zm25 2H43a1 1 0 01-1-1V35a1 1 0 011-1h10a1 1 0 011 1v10a1 1 0 01-1 1zm-9-2h8v-8h-8z"/><path fill="#cfd8dc" d="M5 48h54v3H5z"/><path fill="#01579b" d="M59 52H5a1 1 0 01-1-1V13a1 1 0 011-1h54a1 1 0 011 1v38a1 1 0 01-1 1zM6 50h52V14H6z"/></svg>