<svg xmlns="http://www.w3.org/2000/svg" width="24" height="24"><g stroke="#4A4A4A" fill="none" fill-rule="evenodd"><path d="M15.514 11.55l-.643.643a1 1 0 000 1.415l.386.385a1 1 0 001.414 0l.643-.644 1.8 1.8a7.003 7.003 0 001.164-8.362l2.178-2.179a1 1 0 000-1.414L21.17 1.907a1 1 0 00-1.414 0l-2.178 2.179A7.003 7.003 0 009.214 5.25l1.8 1.8-.644.643a1 1 0 000 1.414l.386.385a1 1 0 001.414 0l.643-.643 2.702 2.7zM4.9 16.764L2.72 18.942a1 1 0 000 1.414l1.286 1.286a1 1 0 001.414 0l2.178-2.178a7.003 7.003 0 008.364-1.164l-9.9-9.9A7.003 7.003 0 004.9 16.765z"/></g></svg>