<svg xmlns="http://www.w3.org/2000/svg" viewBox="0 0 48 48"><path d="M41.414 14c-3.59 0-5.84 2.5-5.84 2.5-1.195-1.559-2.844-2.496-5.633-2.496-2.945 0-4.898 2.496-4.898 2.496C23.848 14.941 21.688 14 20 14c-2.61 0-4.68 1.152-5.945 4.059L9.82 27.32 5.031 15.56c-.605-1.332-2.097-1.934-3.488-1.313-1.395.625-1.906 2.18-1.277 3.512l5.847 13.187C7.031 32.95 8.003 34 9.82 34c1.946 0 2.79-1.145 3.711-3.055 0 0 3.98-8.883 4.469-9.945.488-1.063 1.3-2 2.5-2 1.375 0 2.5 1.125 2.5 2.5v9.875C23 32.82 24.086 34 25.523 34 26.957 34 28 32.82 28 31.375V21.5c0-1.375 1.125-2.5 2.5-2.5s2.5 1.125 2.5 2.5v10c0 1.375 1.125 2.5 2.5 2.5s2.5-1.125 2.5-2.5v-10c0-1.375 1.125-2.5 2.5-2.5s2.5 1.125 2.5 2.5v10c0 1.375 1.125 2.5 2.5 2.5s2.5-1.125 2.5-2.5V20.355C48 16.617 45.012 14 41.414 14z" fill="#9E9E9E"/></svg>